<?xml version="1.0" standalone="no"?>
<!DOCTYPE svg PUBLIC "-//W3C//DTD SVG 20010904//EN"
 "http://www.w3.org/TR/2001/REC-SVG-20010904/DTD/svg10.dtd">
<svg version="1.0" xmlns="http://www.w3.org/2000/svg"
 width="1500.000000pt" height="1500.000000pt" viewBox="0 0 1500.000000 1500.000000"
 preserveAspectRatio="xMidYMid meet">
<metadata>
Created by potrace 1.16, written by Peter Selinger 2001-2019
</metadata>
<style>svg { background-color: white; }</style>
<g transform="translate(0.000000,1500.000000) scale(0.100000,-0.100000)"
fill="#334255" stroke="none">
<path d="M0 7500 l0 -7500 7500 0 7500 0 0 7500 0 7500 -7500 0 -7500 0 0
-7500z m10053 2138 l-128 -128 125 -125 125 -125 -123 -122 -122 -123 130
-130 130 -130 -1340 -1340 -1340 -1340 -1337 1337 -1338 1338 120 120 120 120
-135 135 -135 135 130 130 130 131 -117 115 c-65 63 -118 118 -118 122 0 4
602 609 1337 1344 l1338 1337 1337 -1337 1338 -1337 -127 -127z m-3719 -5007
c89 -156 166 -283 170 -283 5 0 83 128 172 284 l163 283 43 0 43 0 3 -427 2
-428 -45 0 -45 0 0 347 0 348 -150 -260 c-82 -143 -150 -264 -150 -268 0 -5
-15 -7 -32 -5 -32 3 -39 13 -183 265 l-150 261 -3 -344 -2 -344 -45 0 -45 0 0
423 c0 233 3 427 7 431 4 4 25 6 47 4 l39 -3 161 -284z m1358 261 c121 -60
178 -200 139 -337 -11 -37 -29 -64 -71 -106 -69 -70 -104 -79 -300 -79 l-140
0 0 -155 0 -155 -40 0 -40 0 0 431 0 431 203 -4 c187 -3 205 -5 249 -26z m639
-261 c90 -160 167 -289 171 -288 5 1 81 130 171 287 l163 285 45 0 44 0 2
-427 3 -428 -45 0 -45 0 -2 346 -3 345 -151 -263 c-139 -241 -154 -263 -180
-266 -28 -2 -34 7 -179 260 l-150 262 -3 -342 -2 -342 -45 0 -45 0 0 423 c0
233 3 427 7 430 3 4 23 7 44 7 l37 0 163 -289z m-4294 -1701 c30 -52 58 -98
62 -103 4 -4 34 40 67 98 86 152 94 148 94 -55 0 -134 -2 -160 -15 -160 -12 0
-15 23 -17 128 l-3 127 -55 -97 c-30 -54 -60 -98 -67 -98 -6 0 -37 44 -67 98
l-56 97 0 -127 c0 -121 -1 -128 -20 -128 -19 0 -20 7 -20 161 0 158 0 160 21
157 15 -2 38 -31 76 -98z m571 -22 c92 -220 85 -198 64 -198 -12 0 -25 16 -39
50 l-21 50 -70 0 -70 0 -21 -50 c-12 -28 -28 -50 -36 -50 -8 0 -15 3 -15 8 0
7 116 287 126 303 16 26 36 -2 82 -113z m410 97 c16 -13 32 -38 36 -55 7 -40
-16 -96 -43 -105 -26 -8 -26 -12 0 -50 11 -16 27 -42 35 -57 13 -26 13 -28 -3
-28 -11 0 -33 24 -57 60 -37 58 -39 60 -82 60 l-44 0 0 -60 c0 -53 -2 -60 -20
-60 -19 0 -20 7 -20 160 l0 160 84 0 c75 0 88 -3 114 -25z m422 10 c0 -12 -13
-15 -57 -15 l-58 0 2 -145 c2 -138 1 -145 -18 -145 -18 0 -19 8 -19 145 l0
145 -55 0 c-42 0 -55 3 -55 15 0 13 21 15 130 15 109 0 130 -2 130 -15z m350
0 c0 -12 -17 -15 -90 -15 l-90 0 0 -55 0 -54 75 -3 c42 -2 75 -7 75 -13 0 -6
-33 -11 -75 -13 l-75 -3 0 -59 0 -60 90 0 c73 0 90 -3 90 -15 0 -12 -19 -15
-110 -15 l-110 0 0 160 0 160 110 0 c91 0 110 -3 110 -15z m280 -115 c57 -71
104 -130 105 -130 1 0 2 57 1 127 -1 114 1 128 17 131 16 3 17 -10 17 -157 0
-147 -2 -161 -17 -160 -11 0 -60 54 -118 127 l-100 127 -3 -127 c-2 -105 -5
-128 -17 -128 -13 0 -15 26 -15 160 0 127 3 160 13 160 8 0 60 -58 117 -130z
m691 120 c25 -14 49 -62 49 -100 0 -21 -9 -41 -29 -61 -27 -26 -36 -29 -95
-29 l-66 0 0 -60 c0 -53 -2 -60 -20 -60 -19 0 -20 7 -20 160 l0 160 81 0 c44
0 89 -5 100 -10z m409 -5 c0 -12 -17 -15 -90 -15 l-90 0 0 -55 0 -55 75 0 c60
0 75 -3 75 -15 0 -12 -15 -15 -75 -15 l-75 0 0 -60 0 -60 90 0 c73 0 90 -3 90
-15 0 -12 -19 -15 -110 -15 l-110 0 0 160 0 160 110 0 c91 0 110 -3 110 -15z
m380 0 c0 -12 -13 -15 -61 -15 l-60 0 2 -142 c2 -126 0 -143 -14 -146 -15 -3
-17 12 -17 142 l0 146 -55 0 c-42 0 -55 3 -55 15 0 13 21 15 130 15 109 0 130
-2 130 -15z m360 0 c0 -12 -13 -15 -55 -15 l-55 0 0 -145 c0 -122 -2 -145 -15
-145 -13 0 -15 23 -15 145 l0 145 -60 0 c-47 0 -60 3 -60 15 0 13 21 15 130
15 109 0 130 -2 130 -15z m350 0 c0 -12 -17 -15 -90 -15 l-90 0 0 -55 0 -55
80 0 c64 0 80 -3 80 -15 0 -12 -16 -15 -80 -15 l-80 0 0 -60 0 -60 95 0 c78 0
95 -3 95 -15 0 -12 -19 -15 -110 -15 l-110 0 0 160 0 160 105 0 c87 0 105 -3
105 -15z m348 -10 c17 -14 33 -38 37 -54 8 -37 -17 -97 -44 -106 -26 -8 -26
-12 0 -50 11 -16 27 -42 35 -57 13 -26 13 -28 -3 -28 -11 0 -33 24 -57 60 -37
58 -39 60 -82 60 l-44 0 0 -60 c0 -53 -2 -60 -20 -60 -19 0 -20 7 -20 160 l0
160 84 0 c76 0 88 -3 114 -25z m378 3 c25 -25 9 -39 -24 -22 -62 32 -142 9
-142 -41 0 -30 15 -40 83 -58 101 -27 133 -64 107 -126 -14 -36 -47 -51 -111
-51 -63 0 -136 34 -119 55 10 12 16 11 43 -6 35 -21 106 -25 138 -9 12 7 19
21 19 40 0 33 -29 53 -92 65 -50 10 -96 40 -100 67 -6 36 12 77 41 93 34 20
135 15 157 -7z m478 -83 c33 -57 63 -102 67 -100 4 3 32 50 63 105 42 73 62
100 77 100 18 0 19 -8 19 -160 0 -152 -1 -160 -20 -160 -18 0 -20 8 -22 122
l-3 122 -53 -92 c-29 -50 -59 -92 -65 -92 -7 0 -37 44 -67 98 l-55 97 -3 -127
c-2 -105 -5 -128 -17 -128 -13 0 -15 26 -15 160 0 203 8 208 94 55z m606 90
c0 -12 -17 -15 -90 -15 l-90 0 0 -55 0 -54 75 -3 c42 -2 75 -7 75 -13 0 -6
-33 -11 -75 -13 l-75 -3 0 -59 0 -60 90 0 c73 0 90 -3 90 -15 0 -12 -19 -15
-110 -15 l-110 0 0 160 0 160 110 0 c91 0 110 -3 110 -15z m338 -5 c48 -30 72
-75 72 -140 0 -65 -24 -110 -72 -140 -26 -15 -51 -20 -110 -20 l-78 0 0 160 0
160 78 0 c59 0 84 -5 110 -20z m262 -140 c0 -153 -1 -160 -20 -160 -19 0 -20
7 -20 160 0 153 1 160 20 160 19 0 20 -7 20 -160z m357 5 c34 -83 63 -153 63
-157 0 -5 -7 -8 -16 -8 -9 0 -24 20 -36 50 l-21 50 -71 0 -72 0 -18 -50 c-13
-37 -23 -50 -38 -50 -11 0 -18 4 -16 8 79 198 133 312 147 310 10 -2 39 -59
78 -153z" fill="FFF4E5"/>
<path d="M6202 11067 c-710 -710 -1292 -1296 -1292 -1302 0 -5 44 -54 97 -107
l98 -98 1192 1192 1193 1193 1195 -1195 1195 -1195 107 107 108 108 -1295
1295 c-712 712 -1297 1295 -1300 1295 -3 0 -587 -582 -1298 -1293z" fill="FFF4E5"/>
<path d="M6317 10682 l-1167 -1167 112 -113 113 -112 1070 1070 1070 1070
1061 -1059 1061 -1060 99 100 99 99 -1170 1170 c-644 644 -1172 1170 -1175
1170 -3 0 -530 -525 -1173 -1168z" fill="FFF4E5"/>
<path d="M6467 10292 l-1047 -1047 1038 -1037 1037 -1038 1050 1050 1050 1050
-1035 1035 c-569 569 -1037 1035 -1040 1035 -3 0 -476 -471 -1053 -1048z" fill="FFF4E5"/>
<path d="M5000 9365 l-105 -105 113 -113 112 -112 107 108 108 107 -110 110
c-60 60 -112 110 -115 110 -3 0 -52 -47 -110 -105z" fill="FFF4E5"/>
<path d="M9777 9362 l-97 -97 98 -98 c53 -53 102 -97 107 -97 6 0 53 43 105
95 l95 95 -100 100 c-55 55 -102 100 -105 100 -3 0 -49 -44 -103 -98z" fill="FFF4E5"/>
<path d="M8568 8153 l-1068 -1068 -1060 1060 -1060 1060 -107 -108 -108 -107
1163 -1163 1162 -1162 1177 1177 1177 1177 -99 101 c-55 55 -102 100 -105 100
-3 0 -485 -480 -1072 -1067z" fill="FFF4E5"/>
<path d="M8688 7773 l-1198 -1198 -1185 1185 -1185 1185 -97 -98 -98 -97 1298
-1298 1297 -1297 1296 1296 1295 1295 -108 112 c-60 62 -111 112 -113 112 -3
0 -544 -539 -1202 -1197z" fill="FFF4E5"/>
<path d="M7320 4644 l0 -196 163 4 c160 3 164 4 199 30 43 33 70 87 76 153 6
71 -36 149 -97 182 -40 21 -57 23 -193 23 l-148 0 0 -196z" fill="FFF4E5"/>
<path d="M4526 2948 c-9 -21 -23 -54 -30 -73 l-15 -35 60 0 c69 0 68 -4 24 93
l-23 52 -16 -37z" fill="FFF4E5"/>
<path d="M4860 2930 l0 -70 64 0 c56 0 67 3 80 22 22 31 20 74 -4 98 -16 16
-33 20 -80 20 l-60 0 0 -70z" fill="FFF4E5"/>
<path d="M6620 2930 l0 -70 59 0 c65 0 86 13 97 57 5 17 0 33 -13 51 -17 23
-28 27 -82 30 l-61 3 0 -71z" fill="FFF4E5"/>
<path d="M8450 2930 l0 -70 64 0 c56 0 67 3 80 22 22 31 20 74 -4 98 -16 16
-33 20 -80 20 l-60 0 0 -70z" fill="FFF4E5"/>
<path d="M10250 2870 l0 -130 55 0 c69 0 107 19 129 64 20 43 20 89 0 132 -22
45 -60 64 -129 64 l-55 0 0 -130z" fill="FFF4E5"/>
<path d="M10916 2916 c-14 -37 -26 -68 -26 -71 0 -3 27 -5 59 -5 l60 0 -26 63
c-13 34 -28 66 -33 70 -4 5 -19 -21 -34 -57z" fill="FFF4E5"/>
</g>
</svg>
